<?xml version="1.0" encoding="UTF-8"?>
<svg xmlns="http://www.w3.org/2000/svg" viewBox="0 0 1024 1024"><metadata><c2pa:manifest xmlns:c2pa="http://c2pa.org/manifest">AAA0RWp1bWIAAAAeanVtZGMycGEAEQAQgAAAqgA4m3EDYzJwYQAAADQfanVtYgAAAEdqdW1kYzJtYQARABCAAACqADibcQN1cm46dXVpZDplOTE3MjJmMi1kZjEyLTQ2YTEtYmQ3MC0xMzIwZDgxYzY3ZmMAAAABtGp1bWIAAAApanVtZGMyYXMAEQAQgAAAqgA4m3EDYzJwYS5hc3NlcnRpb25zAAAAANdqdW1iAAAAJmp1bWRjYm9yABEAEIAAAKoAOJtxA2MycGEuYWN0aW9ucwAAAACpY2JvcqFnYWN0aW9uc4GjZmFjdGlvbmtjMnBhLmVkaXRlZG1zb2Z0d2FyZUFnZW50bUFkb2JlIEZpcmVmbHlxZGlnaXRhbFNvdXJjZVR5cGV4U2h0dHA6Ly9jdi5pcHRjLm9yZy9uZXdzY29kZXMvZGlnaXRhbHNvdXJjZXR5cGUvY29tcG9zaXRlV2l0aFRyYWluZWRBbGdvcml0aG1pY01lZGlhAAAArGp1bWIAAAAoanVtZGNib3IAEQAQgAAAqgA4m3EDYzJwYS5oYXNoLmRhdGEAAAAAfGNib3KlamV4Y2x1c2lvbnOBomVzdGFydBimZmxlbmd0aBlFtGRuYW1lbmp1bWJmIG1hbmlmZXN0Y2FsZ2ZzaGEyNTZkaGFzaFgg5pFqmkkLRn9jyEcIH0hlLPqVMJ2yu58bwkAiw12j4ZVjcGFkSQAAAAAAAAAAAAAAAgxqdW1iAAAAJGp1bWRjMmNsABEAEIAAAKoAOJtxA2MycGEuY2xhaW0AAAAB4GNib3KoaGRjOnRpdGxlb0dlbmVyYXRlZCBJbWFnZWlkYzpmb3JtYXRtaW1hZ2Uvc3ZnK3htbGppbnN0YW5jZUlEeCx4bXA6aWlkOjg4YmQ1NDI2LWYxZmEtNDgyZS04Yzk0LTFmMjkyMzM4OTM2Y29jbGFpbV9nZW5lcmF0b3J4N0Fkb2JlX0lsbHVzdHJhdG9yLzI5LjggYWRvYmVfYzJwYS8wLjEyLjIgYzJwYS1ycy8wLjMyLjV0Y2xhaW1fZ2VuZXJhdG9yX2luZm+Bv2RuYW1lcUFkb2JlIElsbHVzdHJhdG9yZ3ZlcnNpb25kMjkuOP9pc2lnbmF0dXJleBlzZWxmI2p1bWJmPWMycGEuc2lnbmF0dXJlamFzc2VydGlvbnOComN1cmx4J3NlbGYjanVtYmY9YzJwYS5hc3NlcnRpb25zL2MycGEuYWN0aW9uc2RoYXNoWCBKacG9/6jeQTB4viTtzPgxOsHRZJU0VnGgDWsGszfUr6JjdXJseClzZWxmI2p1bWJmPWMycGEuYXNzZXJ0aW9ucy9jMnBhLmhhc2guZGF0YWRoYXNoWCANuIQ+hn+gylKEBq8T+5b6d7KezrXHNzS3IQ5EVw765WNhbGdmc2hhMjU2AAAwEGp1bWIAAAAoanVtZGMyY3MAEQAQgAAAqgA4m3EDYzJwYS5zaWduYXR1cmUAAAAv4GNib3LShFkNFKIBOCQYIYJZBqAwggacMIIEhKADAgECAhRJcyBrPnXfyWyvf1b/LSqtsEAH3TANBgkqhkiG9w0BAQsFADB1MQswCQYDVQQGEwJVUzEjMCEGA1UEChMaQWRvYmUgU3lzdGVtcyBJbmNvcnBvcmF0ZWQxHTAbBgNVBAsTFEFkb2JlIFRydXN0IFNlcnZpY2VzMSIwIAYDVQQDExlBZG9iZSBQcm9kdWN0IFNlcnZpY2VzIEc0MB4XDTI1MTAwNzE2MzkwN1oXDTI2MTAwNzE2MzkwN1owgasxEzARBgNVBAMMCkFkb2JlIEMyUEExKDAmBgNVBAsMH0NvbnRlbnQgQXV0aGVudGljaXR5IEluaXRpYXRpdmUxEzARBgNVBAoMCkFkb2JlIEluYy4xETAPBgNVBAcMCFNhbiBKb3NlMRMwEQYDVQQIDApDYWxpZm9ybmlhMQswCQYDVQQGEwJVUzEgMB4GCSqGSIb3DQEJARYRY2FpLW9wc0BhZG9iZS5jb20wggEiMA0GCSqGSIb3DQEBAQUAA4IBDwAwggEKAoIBAQDDEMGB0H09cukxc/Dmg2BiQVYM8/VpJ+2H1Nk8g0605CWGnW/iH6EzFlYWORndElG6hIGuxJJgFoR+IMwqKyL+w7G4UcoFX/+XWu/dKuOuLEA1ciWqMZ0hjJ1oxoVr/mi8XP+bj5JTPRxxjOrD69IDO5HJIaemCbwaaP5IQlwv8YgfOpT1tTLc2yLNjahjbzKPfatuQ6p4ANIznU6ogkqWgQEUV7HMy6fOlT4rawuqF6hHwUkxpHR8Zdr+CpHOGSIEWHBSEs9L2zr5MKfPT1RkyVdt0b+IUqPdQ8VQOOqHTC0WBzPbgOtSVpZ6KW0oei7KYEe6KvO+Y4bRW1I96nE5AgMBAAGjggHrMIIB5zAMBgNVHRMBAf8EAjAAMB0GA1UdDgQWBBRY9QN+0GYM4Y4OVqGXQknSuyfC/jAfBgNVHSMEGDAWgBTQrUKK8HoUByXGl8BDqCOF6LUtIzAOBgNVHQ8BAf8EBAMCB4AwKgYDVR0lBCMwIQYJKoZIhvcvAQEMBgorBgEEAYPoXgIBBggrBgEFBQcDBDCBgAYIKwYBBQUHAQEEdDByMCgGCCsGAQUFBzABhhxodHRwOi8vb2NzcC5vbmUuZGlnaWNlcnQuY29tMEYGCCsGAQUFBzAChjpodHRwOi8vY2FjZXJ0cy5vbmUuZGlnaWNlcnQuY29tL0Fkb2JlUHJvZHVjdFNlcnZpY2VzRzQuY3J0MEcGA1UdHwRAMD4wPKA6oDiGNmh0dHA6Ly9jcmwub25lLmRpZ2ljZXJ0LmNvbS9BZG9iZVByb2R1Y3RTZXJ2aWNlc0c0LmNybDCBjgYDVR0gBIGGMIGDMIGABgkqhkiG9y8BAgMwczBxBggrBgEFBQcCAjBlDGNZb3UgYXJlIG5vdCBwZXJtaXR0ZWQgdG8gdXNlIHRoaXMgTGljZW5zZSBDZXJ0aWZpY2F0ZSBleGNlcHQgYXMgcGVybWl0dGVkIGJ5IHRoZSBsaWNlbnNlIGFncmVlbWVudC4wDQYJKoZIhvcNAQELBQADggIBAJs7c8VwrVF+V6FDXrEeoTUZzzqRJGAXoQ7AiV6daRHHZVJPY2NO9OU6dahtUvF/2AUgw216awWggF82Zz5Hu34Y0Mz6FJ+y0smSoWoCVA61OJo5qSDpzS5tJVaqCx7+mI9rXmT+qsuki7hUF7cGbK05JJX4cU48qx3tw7T2wl4Mxq2TcriMcx79qdcRJReVo362iW9eDqoBDxcTVxJvrlAUGJrBQx6PqNBuQ1mneOeis4GpIl87EhDDv39acUxh/FEf+UjauxjjdimGpdwFeJ+MlDSPEUyokY2ubb/I4MvoEZW2uOf3uSh9lbZwoXPmsNJPOVwURwpQAHWJbt555NIqXNGRX46TaJvziVMWA1uL1QGdPcotLoSRksQil0DaHhK56fWnAeNaZmzFYDeH/f06hyw56Ass2+l1VEuW1/bqPvahpAd9PRDKHOvMNbjwUk3eiUmqUIEKTQbnCnc7kqkZ3I+r2EAaNMmu+nGycJdKqjplnO8mV+QmqQBrpd/3YsrrLCudTPLxoERASfIEXvqOg8zeBNYyclU8I+XUH0XLD63KpiC00yAnK+W0hyWvHirsMuW4ytv3YGeg3qdrD5t3Pkg3+ipHUoTNiuEPbiil2S1j0CyvdHcoUOB0++/+v9GTi921ieTIB1zzPGfKGdQdykAf0UOysArVG+Brix6yWQZnMIIGYzCCBEugAwIBAgIQDuG63614rm8mvVElmAeILzANBgkqhkiG9w0BAQsFADBsMQswCQYDVQQGEwJVUzEjMCEGA1UEChMaQWRvYmUgU3lzdGVtcyBJbmNvcnBvcmF0ZWQxHTAbBgNVBAsTFEFkb2JlIFRydXN0IFNlcnZpY2VzMRkwFwYDVQQDExBBZG9iZSBSb290IENBIEcyMB4XDTI0MTEyMDAwMDAwMFoXDTQ0MTExOTIzNTk1OVowdTELMAkGA1UEBhMCVVMxIzAhBgNVBAoTGkFkb2JlIFN5c3RlbXMgSW5jb3Jwb3JhdGVkMR0wGwYDVQQLExRBZG9iZSBUcnVzdCBTZXJ2aWNlczEiMCAGA1UEAxMZQWRvYmUgUHJvZHVjdCBTZXJ2aWNlcyBHNDCCAiIwDQYJKoZIhvcNAQEBBQADggIPADCCAgoCggIBAKxF+ICxWEi8zumCmeLCiU7as6RDEkgB/y6nFXeceMAQC5afyCzXeWyQJolO7Cmi4Nw5vtexdD3zVCwG7cUAn3kHrNaLNtkGS+qp7jCG3QpvASkdR+ujOpyWiOB/iBlyWR+8djFpjv3N323tR4Don9zeZ23+Gctlmd+D5KvI1zKQdWYHKtMxFJaRKXwrebOE4it4lVoPfY843ve9N7cuJlFyj2Vu3NLrr1RgEF+jdUAAEynThGKVVoUKG1abmuvmLq34LluAcRIME0TE8EuGMNvomTLAYI2c4MSXxhrJqThlWRo+MsXi+J5S/VYsm+hvd4Flwus+qF4cA+1QEDNMiidxPTMji3OXNAhsnFWNFFBt0RzTNSFsOQObDKTo90YBvEfT6JGqjwkr7hEfj87gcNVXkzoJSHEADJ4kNnJu5rgef2LvYp4dG1EpQskGMrZaq55gDcbKVm4rnY5M93lHsG4DEusf/3YihdPOdc0sDgmDDJiuQR6Glb1fK4Se0J9vomXSSW1p3ICv3TUpeKd/GRb3ChDFpMfHDv0UjfCRh9eeRBXFGCWkB6DUvSMz6uAHFpDuXiRyemRjjszJTWwx0p6HByMdtvRQhhA/JfgEcLEtUcb5MToCr+DwIO4ZaoNaktJvJOQHtG0TQbArhIg+/35UrTbVPbZg7pxmQnjTgbPvAgMBAAGjgfcwgfQwEgYDVR0TAQH/BAgwBgEB/wIBADA1BgNVHR8ELjAsMCqgKKAmhiRodHRwOi8vY3JsLmFkb2JlLmNvbS9hZG9iZXJvb3RnMi5jcmwwDgYDVR0PAQH/BAQDAgGGMFcGA1UdIARQME4wTAYJKoZIhvcvAQIDMD8wPQYIKwYBBQUHAgEWMWh0dHBzOi8vd3d3LmFkb2JlLmNvbS9taXNjL3BraS9wcm9kX3N2Y2VfY3BzLmh0bWwwHQYDVR0OBBYEFNCtQorwehQHJcaXwEOoI4XotS0jMB8GA1UdIwQYMBaAFKYc4W1UJEyoj0hyv26pjNXk7DHUMA0GCSqGSIb3DQEBCwUAA4ICAQCRlqhDU07OWLmha2+YptYEMFr3tEE9vhBLlnlN7oeKRW9S8UVEGJUNwGnw4HMy2IIeGGc6pn2h+s6ZV6xJ8CdjgMT8Zp5OtaNNe5O/qH37EETsDxN79lUDolWAnO9GT1Ln1fT25z7n+ilSPQ5EMUzKsTRslqJMVQeTOYWNYX80+eFeoT8/0s6NZLsxodw4l+pBRdyvI5g2g/vgxTYPQjdjBeqIIPBZfW5PI6WJwesJW65tXaqd1GNmkkDPlO3ZcS8qj0TONxpCfrDsjTm+OpX9k2Yvyljuz/GLssmw9hpwwOa9gSIOhVrR1hSCoWkrHQ1KWeaedPREi0AdlQ0NXClPmf7AxCZN8e4fkNovduPXyTnI43nN8PFMsUmySUxb9RtyWOH87KuJjBVkgX2PbIRvCxnQ6RrzElMbzKfw/oDRs8Psq/mm3OqVxGE8JqEH7yl3mLa7OQEk6bAMjqEoORkxudGTf0beyV72Iu5MlklIZ9L3J7XLIObmURgVhJfzmBfubLwfRGm1aaScfeyCL/38T0jKtKqYklDi1A3VbWPBSMn8sCcS7cOrbRLQtm1Y6qES+zE5Lvt/HnsVAeB1caQuxP+Fblc7a4xQb6sRmy6FmVWFbqwC1yzeXbSo9ki2+zd3OezgyfNmWgoEj3MwlbQXMNi9Vq8kA9Hf4rayLs28fqNmc2lnVHN0oWl0c3RUb2tlbnOBoWN2YWxZDlgwgg5UMAMCAQAwgg5LBgkqhkiG9w0BBwKggg48MIIOOAIBAzEPMA0GCWCGSAFlAwQCAQUAMIGCBgsqhkiG9w0BCRABBKBzBHEwbwIBAQYJYIZIAYb9bAcBMDEwDQYJYIZIAWUDBAIBBQAEIDypijTQmT4vu72AJCpVd6JSE6MoQ3DMaTuIM0m+OzcgAhBr5/B1/uwO4hicVKtKNZbXGA8yMDI2MDMwOTIwMzYwN1oCCQDhIhbNX5oFDKCCC9owggUeMIIDBqADAgECAhAJGQ3BLJyH2zL9CrVQve1LMA0GCSqGSIb3DQEBCwUAMGkxCzAJBgNVBAYTAlVTMRcwFQYDVQQKEw5EaWdpQ2VydCwgSW5jLjFBMD8GA1UEAxM4RGlnaUNlcnQgVHJ1c3RlZCBHNCBUaW1lU3RhbXBpbmcgUlNBNDA5NiBTSEEyNTYgMjAyNSBDQTEwHhcNMjUwNjExMDAwMDAwWhcNMzYwOTEwMjM1OTU5WjBfMQswCQYDVQQGEwJVUzEXMBUGA1UEChMORGlnaUNlcnQsIEluYy4xNzA1BgNVBAMTLkFkb2JlIFNIQTI1NiBFQ0MyNTYgVGltZXN0YW1wIFJlc3BvbmRlciAyMDI1IDEwWTATBgcqhkjOPQIBBggqhkjOPQMBBwNCAAQ6mcnV2UjvS/OI18aycCDz3iLKcO/5PIz9YsMW+WTtD24jd4o1bm7HW81d/LCte4Z0tLuYZxjhHR9hJ7FMEanyo4IBlTCCAZEwDAYDVR0TAQH/BAIwADAdBgNVHQ4EFgQUIHaho25xFY90lQ2upCykNj9YGRUwHwYDVR0jBBgwFoAU729TSunkBnx6yuKQVvYv1Ensy04wDgYDVR0PAQH/BAQDAgeAMBYGA1UdJQEB/wQMMAoGCCsGAQUFBwMIMIGVBggrBgEFBQcBAQSBiDCBhTAkBggrBgEFBQcwAYYYaHR0cDovL29jc3AuZGlnaWNlcnQuY29tMF0GCCsGAQUFBzAChlFodHRwOi8vY2FjZXJ0cy5kaWdpY2VydC5jb20vRGlnaUNlcnRUcnVzdGVkRzRUaW1lU3RhbXBpbmdSU0E0MDk2U0hBMjU2MjAyNUNBMS5jcnQwXwYDVR0fBFgwVjBUoFKgUIZOaHR0cDovL2NybDMuZGlnaWNlcnQuY29tL0RpZ2lDZXJ0VHJ1c3RlZEc0VGltZVN0YW1waW5nUlNBNDA5NlNIQTI1NjIwMjVDQTEuY3JsMCAGA1UdIAQZMBcwCAYGZ4EMAQQCMAsGCWCGSAGG/WwHATANBgkqhkiG9w0BAQsFAAOCAgEASpz+Ks655Om2nuuJjZLgL3oFXxeFme+djwiBdVPkHISv4fRDXtO/UgFO7Oun+s6OoNrYKQ6GxaRLUu23DmrCeEyvBdE5RX/CAEtK473PsDso8c1tmkjqDSHzgxDRswoX/EHWIsSRrjJM8RWB7Kd3KPja0juZtkFVpJzqjk/dqJ9UaqyiKfKrCRiwIpLU1CdBRFnj6uxJTfh0y7xzr+rWOPHVMJNezF53iJo9wi+QSOX2ee6ZrbdKAYHWO8sM+EZG0vzNaWeqUN1LlTg57Q1PKpKCxiCmKgqsxGXmScWisZPzjEuUOyrLD9OJjyvXO8SeHvf6xPFwhnCE3gc2edsH7QCVdsJ3OpKZ7JMubwI2GwqI9MgwGnKJG35k+8vQE9MLziVD30i4y8jyOSdMafeXHYvGx0aGAwCObM2ezGSmndVWr9DPh1cGamNArjTUkcWRF0yo0UzJwdG14VQqPl5nlj/2tLqk206DT2FsIMQKCa42UJbIhS2hdLxnHN8SpkpyeU62gU4VT5ZRWaqmbvw+4QFIgHQoWPeMOwNpVHqfWAocb2v7bsomgvKoMd55kjGjbnct65xikEaSMe5TlGjNmfozbq1BC8OLF9eqA6L4ZW1ZieRJIP0YBi9EiQX5mH0LNyNWA/CugYgd9bxzRHF+9RoVX8ar833EfBpGPsRSHkwwgga0MIIEnKADAgECAhANx6xXBf8hmS5AQyIMOkmGMA0GCSqGSIb3DQEBCwUAMGIxCzAJBgNVBAYTAlVTMRUwEwYDVQQKEwxEaWdpQ2VydCBJbmMxGTAXBgNVBAsTEHd3dy5kaWdpY2VydC5jb20xITAfBgNVBAMTGERpZ2lDZXJ0IFRydXN0ZWQgUm9vdCBHNDAeFw0yNTA1MDcwMDAwMDBaFw0zODAxMTQyMzU5NTlaMGkxCzAJBgNVBAYTAlVTMRcwFQYDVQQKEw5EaWdpQ2VydCwgSW5jLjFBMD8GA1UEAxM4RGlnaUNlcnQgVHJ1c3RlZCBHNCBUaW1lU3RhbXBpbmcgUlNBNDA5NiBTSEEyNTYgMjAyNSBDQTEwggIiMA0GCSqGSIb3DQEBAQUAA4ICDwAwggIKAoICAQC0eDHTCphBcr48RsAcrHXbo0ZodLRRF51NrY0NlLWZloMsVO1DahGPNRcybEKq+RuwOnPhof6pvF4uGjwjqNjfEvUi6wuim5bap+0lgloM2zX4kftn5B1IpYzTqpyFQ/4Bt0mAxAHeHYNnQxqXmRinvuNgxVBdJkf77S2uPoCj7GH8BLuxBG5AvftBdsOECS1UkxBvMgEdgkFiDNYiOTx4OtiFcMSkqTtF2hfQz3zQSku2Ws3IfDReb6e3mmdglTcaarps0wjUjsZvkgFkriK9tUKJm/s80FiocSk1VYLZlDwFt+cVFBURJg6zMUjZa/zbCclF83bRVFLeGkuAhHiGPMvSGmhgaTzVyhYn4p0+8y9oHRaQT/aofEnS5xLrfxnGpTXiUOeSLsJygoLPp66bkDX1ZlAeSpQl92QOMeRxykvq6gbylsXQskBBBnGy3tW/AMOMCZIVNSaz7BX8VtYGqLt9MmeOreGPRdtBx3yGOP+rx3rKWDEJlIqLXvJWnY0v5ydPpOjL6s36czwzsucuoKs7Yk/ehb//Wx+5kMqIMRvUBDx6z1ev+7psNOdgJMoiwOrUG2ZdSoQbU2rMkpLiQ6bGRinZbI4OLu9BMIFm1UUl9VnePs6BaaeEWvjJSjNm2qA+sdFUeEY0qVjPKOWug/G6X5uAiynM7Bu2ayBjUwIDAQABo4IBXTCCAVkwEgYDVR0TAQH/BAgwBgEB/wIBADAdBgNVHQ4EFgQU729TSunkBnx6yuKQVvYv1Ensy04wHwYDVR0jBBgwFoAU7NfjgtJxXWRM3y5nP+e6mK4cD08wDgYDVR0PAQH/BAQDAgGGMBMGA1UdJQQMMAoGCCsGAQUFBwMIMHcGCCsGAQUFBwEBBGswaTAkBggrBgEFBQcwAYYYaHR0cDovL29jc3AuZGlnaWNlcnQuY29tMEEGCCsGAQUFBzAChjVodHRwOi8vY2FjZXJ0cy5kaWdpY2VydC5jb20vRGlnaUNlcnRUcnVzdGVkUm9vdEc0LmNydDBDBgNVHR8EPDA6MDigNqA0hjJodHRwOi8vY3JsMy5kaWdpY2VydC5jb20vRGlnaUNlcnRUcnVzdGVkUm9vdEc0LmNybDAgBgNVHSAEGTAXMAgGBmeBDAEEAjALBglghkgBhv1sBwEwDQYJKoZIhvcNAQELBQADggIBABfO+xaAHP4HPRF2cTC9vgvItTSmf83Qh8WIGjB/T8ObXAZz8OjuhUxjaaFdleMM0lBryPTQM2qEJPe36zwbSI/mS83afsl3YTj+IQhQE7jU/kXjjytJgnn0hvrV6hqWGd3rLAUt6vJy9lMDPjTLxLgXf9r5nWMQwr8Myb9rEVKChHyfpzee5kH0F8HABBgr0UdqirZ7bowe9Vj2AIMD8liyrukZ2iA/wdG2th9y1IsA0QF8dTXqvcnTmpfeQh35k5zOCPmSNq1UH410ANVko43+Cdmu4y81hjajV/gxdEkMx1NKU4uHQcKfZxAvBAKqMVuqte69M9J6A47OvgRaPs+2ykgcGV00TYr2Lr3ty9qIijanrUR3anzEwlvzZiiyfTPjLbnFRsjsYg39OlV8cipDoq7+qNNjqFzeGxcytL5TTLL4ZaoBdqbhOhZ3ZRDUphPvSRmMThi0vw9vODRzW6AxnJll38F0cuJG7uEBYTptMSbhdhGQDpOXgpIUsWTjd6xpR6oaQf/DJbg3s6KCLPAlZ66RzIg9sC+NJpud/v4+7RWsWCiKi9EOLLHfMR2ZyJ/+xhCx9yHbxtl5TPau1j/1MIDpMPx0LckTetiSuEtQvLsNz3Qbp7wGWqbIiOWCnb5WqxL3/BAPvIXKUjPSxyZsq8WhbaM2tszWkPZPubdcMYIBvTCCAbkCAQEwfTBpMQswCQYDVQQGEwJVUzEXMBUGA1UEChMORGlnaUNlcnQsIEluYy4xQTA/BgNVBAMTOERpZ2lDZXJ0IFRydXN0ZWQgRzQgVGltZVN0YW1waW5nIFJTQTQwOTYgU0hBMjU2IDIwMjUgQ0ExAhAJGQ3BLJyH2zL9CrVQve1LMA0GCWCGSAFlAwQCAQUAoIHRMBoGCSqGSIb3DQEJAzENBgsqhkiG9w0BCRABBDAcBgkqhkiG9w0BCQUxDxcNMjYwMzA5MjAzNjA3WjArBgsqhkiG9w0BCRACDDEcMBowGDAWBBTXh7p5KWOfuMEvSqYWUXTL4KWA8zAvBgkqhkiG9w0BCQQxIgQgHyb5PvhG1On8WV393SMBhhpShh1Ak0V7GvNQX/h386owNwYLKoZIhvcNAQkQAi8xKDAmMCQwIgQg0yOv4l/dPRbyby8lnnzkiduG0tmqsHsm9Zg3CGCJVngwCgYIKoZIzj0EAwIERjBEAiAik+AQuck5m7KWoLXQKhUU28bpL8uGyVGZOu3SxSetcQIgS2Zs97hYJmBrknolBlE332pzDsdTWyE9SFIWbUGzMXRlclZhbHOhaG9jc3BWYWxzgVkC2zCCAtcKAQCgggLQMIICzAYJKwYBBQUHMAEBBIICvTCCArkwgaKiFgQU0K1CivB6FAclxpfAQ6gjhei1LSMYDzIwMjYwMzA0MTc0NDU5WjB3MHUwTTAJBgUrDgMCGgUABBSK77IBEG9rZRVNwaO3UamLc5LLFgQU0K1CivB6FAclxpfAQ6gjhei1LSMCFElzIGs+dd/JbK9/Vv8tKq2wQAfdgAAYDzIwMjYwMzA0MTc0NDU5WqARGA8yMDI2MDMxMTE3NDQ1OVowDQYJKoZIhvcNAQELBQADggIBAD/iUR4DaPnIc07mgd53dFpD5nMdVP7wvsEZCeqedZ7InkbYkwAsAi4BESes4eXr7ait74Ojz5v9WZZWOeUhzf4aAwAMBMzc7upBItJko40SrMnfP42jNw6iMFKYTRPOafWIyOPmkXvs0ZPzXq5V/4gBa4IdtFIsilwFFQ/a4G0SXyrOmOFbt1r1u3kW/hGUDtd8m5uJMLLeUc209/rTLPreMh+EVihJ1NRfAzhnNHoSKrrFU1tFINUfHMSMbi3rZvBf2hOOF4G7QJleeWsc1t9u+tIQS6CtWRTTDFYg7pQ1bTU/uczTG8PZBlaeRPBHUvdQ6ku9wHZy7WmVfVbzvrVttuxA3vprkr4AjgpF9oxdtKGwk8PWm6ujtpVQWRLFBs4MRg78+QoM50wzSzlvS4hX193XfE+TN2eDKWD+0tvjTj2t0jG38/P6qPFwHJ5mGhXRrHw+QeNyzc8iv2BeVfgHlvxVRoSYtsQn0xgPA/TW6jQ+bKGD4qaQx0/OKPMa8L3nHQzuLNkgCuEpg1oni8/qCJDhZpSfTY3TCdkPtGcCEdxtP2uukNE3XI3V93Qbc8hwUWEtaURmqGJen8RwCxkoBoPjcUMmLpVy6RRN7u3wEIxslwzGyZBqoC4MzckI7kR5Omk/zO1xvwzt+vcRIt4JNyrzS6AgSSGutsG+lgVSY3BhZFkQUQAAAAAAAAAAAAAAAAAAAAAAAAAAAAAAAAAAAAAAAAAAAAAAAAAAAAAAAAAAAAAAAAAAAAAAAAAAAAAAAAAAAAAAAAAAAAAAAAAAAAAAAAAAAAAAAAAAAAAAAAAAAAAAAAAAAAAAAAAAAAAAAAAAAAAAAAAAAAAAAAAAAAAAAAAAAAAAAAAAAAAAAAAAAAAAAAAAAAAAAAAAAAAAAAAAAAAAAAAAAAAAAAAAAAAAAAAAAAAAAAAAAAAAAAAAAAAAAAAAAAAAAAAAAAAAAAAAAAAAAAAAAAAAAAAAAAAAAAAAAAAAAAAAAAAAAAAAAAAAAAAAAAAAAAAAAAAAAAAAAAAAAAAAAAAAAAAAAAAAAAAAAAAAAAAAAAAAAAAAAAAAAAAAAAAAAAAAAAAAAAAAAAAAAAAAAAAAAAAAAAAAAAAAAAAAAAAAAAAAAAAAAAAAAAAAAAAAAAAAAAAAAAAAAAAAAAAAAAAAAAAAAAAAAAAAAAAAAAAAAAAAAAAAAAAAAAAAAAAAAAAAAAAAAAAAAAAAAAAAAAAAAAAAAAAAAAAAAAAAAAAAAAAAAAAAAAAAAAAAAAAAAAAAAAAAAAAAAAAAAAAAAAAAAAAAAAAAAAAAAAAAAAAAAAAAAAAAAAAAAAAAAAAAAAAAAAAAAAAAAAAAAAAAAAAAAAAAAAAAAAAAAAAAAAAAAAAAAAAAAAAAAAAAAAAAAAAAAAAAAAAAAAAAAAAAAAAAAAAAAAAAAAAAAAAAAAAAAAAAAAAAAAAAAAAAAAAAAAAAAAAAAAAAAAAAAAAAAAAAAAAAAAAAAAAAAAAAAAAAAAAAAAAAAAAAAAAAAAAAAAAAAAAAAAAAAAAAAAAAAAAAAAAAAAAAAAAAAAAAAAAAAAAAAAAAAAAAAAAAAAAAAAAAAAAAAAAAAAAAAAAAAAAAAAAAAAAAAAAAAAAAAAAAAAAAAAAAAAAAAAAAAAAAAAAAAAAAAAAAAAAAAAAAAAAAAAAAAAAAAAAAAAAAAAAAAAAAAAAAAAAAAAAAAAAAAAAAAAAAAAAAAAAAAAAAAAAAAAAAAAAAAAAAAAAAAAAAAAAAAAAAAAAAAAAAAAAAAAAAAAAAAAAAAAAAAAAAAAAAAAAAAAAAAAAAAAAAAAAAAAAAAAAAAAAAAAAAAAAAAAAAAAAAAAAAAAAAAAAAAAAAAAAAAAAAAAAAAAAAAAAAAAAAAAAAAAAAAAAAAAAAAAAAAAAAAAAAAAAAAAAAAAAAAAAAAAAAAAAAAAAAAAAAAAAAAAAAAAAAAAAAAAAAAAAAAAAAAAAAAAAAAAAAAAAAAAAAAAAAAAAAAAAAAAAAAAAAAAAAAAAAAAAAAAAAAAAAAAAAAAAAAAAAAAAAAAAAAAAAAAAAAAAAAAAAAAAAAAAAAAAAAAAAAAAAAAAAAAAAAAAAAAAAAAAAAAAAAAAAAAAAAAAAAAAAAAAAAAAAAAAAAAAAAAAAAAAAAAAAAAAAAAAAAAAAAAAAAAAAAAAAAAAAAAAAAAAAAAAAAAAAAAAAAAAAAAAAAAAAAAAAAAAAAAAAAAAAAAAAAAAAAAAAAAAAAAAAAAAAAAAAAAAAAAAAAAAAAAAAAAAAAAAAAAAAAAAAAAAAAAAAAAAAAAAAAAAAAAAAAAAAAAAAAAAAAAAAAAAAAAAAAAAAAAAAAAAAAAAAAAAAAAAAAAAAAAAAAAAAAAAAAAAAAAAAAAAAAAAAAAAAAAAAAAAAAAAAAAAAAAAAAAAAAAAAAAAAAAAAAAAAAAAAAAAAAAAAAAAAAAAAAAAAAAAAAAAAAAAAAAAAAAAAAAAAAAAAAAAAAAAAAAAAAAAAAAAAAAAAAAAAAAAAAAAAAAAAAAAAAAAAAAAAAAAAAAAAAAAAAAAAAAAAAAAAAAAAAAAAAAAAAAAAAAAAAAAAAAAAAAAAAAAAAAAAAAAAAAAAAAAAAAAAAAAAAAAAAAAAAAAAAAAAAAAAAAAAAAAAAAAAAAAAAAAAAAAAAAAAAAAAAAAAAAAAAAAAAAAAAAAAAAAAAAAAAAAAAAAAAAAAAAAAAAAAAAAAAAAAAAAAAAAAAAAAAAAAAAAAAAAAAAAAAAAAAAAAAAAAAAAAAAAAAAAAAAAAAAAAAAAAAAAAAAAAAAAAAAAAAAAAAAAAAAAAAAAAAAAAAAAAAAAAAAAAAAAAAAAAAAAAAAAAAAAAAAAAAAAAAAAAAAAAAAAAAAAAAAAAAAAAAAAAAAAAAAAAAAAAAAAAAAAAAAAAAAAAAAAAAAAAAAAAAAAAAAAAAAAAAAAAAAAAAAAAAAAAAAAAAAAAAAAAAAAAAAAAAAAAAAAAAAAAAAAAAAAAAAAAAAAAAAAAAAAAAAAAAAAAAAAAAAAAAAAAAAAAAAAAAAAAAAAAAAAAAAAAAAAAAAAAAAAAAAAAAAAAAAAAAAAAAAAAAAAAAAAAAAAAAAAAAAAAAAAAAAAAAAAAAAAAAAAAAAAAAAAAAAAAAAAAAAAAAAAAAAAAAAAAAAAAAAAAAAAAAAAAAAAAAAAAAAAAAAAAAAAAAAAAAAAAAAAAAAAAAAAAAAAAAAAAAAAAAAAAAAAAAAAAAAAAAAAAAAAAAAAAAAAAAAAAAAAAAAAAAAAAAAAAAAAAAAAAAAAAAAAAAAAAAAAAAAAAAAAAAAAAAAAAAAAAAAAAAAAAAAAAAAAAAAAAAAAAAAAAAAAAAAAAAAAAAAAAAAAAAAAAAAAAAAAAAAAAAAAAAAAAAAAAAAAAAAAAAAAAAAAAAAAAAAAAAAAAAAAAAAAAAAAAAAAAAAAAAAAAAAAAAAAAAAAAAAAAAAAAAAAAAAAAAAAAAAAAAAAAAAAAAAAAAAAAAAAAAAAAAAAAAAAAAAAAAAAAAAAAAAAAAAAAAAAAAAAAAAAAAAAAAAAAAAAAAAAAAAAAAAAAAAAAAAAAAAAAAAAAAAAAAAAAAAAAAAAAAAAAAAAAAAAAAAAAAAAAAAAAAAAAAAAAAAAAAAAAAAAAAAAAAAAAAAAAAAAAAAAAAAAAAAAAAAAAAAAAAAAAAAAAAAAAAAAAAAAAAAAAAAAAAAAAAAAAAAAAAAAAAAAAAAAAAAAAAAAAAAAAAAAAAAAAAAAAAAAAAAAAAAAAAAAAAAAAAAAAAAAAAAAAAAAAAAAAAAAAAAAAAAAAAAAAAAAAAAAAAAAAAAAAAAAAAAAAAAAAAAAAAAAAAAAAAAAAAAAAAAAAAAAAAAAAAAAAAAAAAAAAAAAAAAAAAAAAAAAAAAAAAAAAAAAAAAAAAAAAAAAAAAAAAAAAAAAAAAAAAAAAAAAAAAAAAAAAAAAAAAAAAAAAAAAAAAAAAAAAAAAAAAAAAAAAAAAAAAAAAAAAAAAAAAAAAAAAAAAAAAAAAAAAAAAAAAAAAAAAAAAAAAAAAAAAAAAAAAAAAAAAAAAAAAAAAAAAAAAAAAAAAAAAAAAAAAAAAAAAAAAAAAAAAAAAAAAAAAAAAAAAAAAAAAAAAAAAAAAAAAAAAAAAAAAAAAAAAAAAAAAAAAAAAAAAAAAAAAAAAAAAAAAAAAAAAAAAAAAAAAAAAAAAAAAAAAAAAAAAAAAAAAAAAAAAAAAAAAAAAAAAAAAAAAAAAAAAAAAAAAAAAAAAAAAAAAAAAAAAAAAAAAAAAAAAAAAAAAAAAAAAAAAAAAAAAAAAAAAAAAAAAAAAAAAAAAAAAAAAAAAAAAAAAAAAAAAAAAAAAAAAAAAAAAAAAAAAAAAAAAAAAAAAAAAAAAAAAAAAAAAAAAAAAAAAAAAAAAAAAAAAAAAAAAAAAAAAAAAAAAAAAAAAAAAAAAAAAAAAAAAAAAAAAAAAAAAAAAAAAAAAAAAAAAAAAAAAAAAAAAAAAAAAAAAAAAAAAAAAAAAAAAAAAAAAAAAAAAAAAAAAAAAAAAAAAAAAAAAAAAAAAAAAAAAAAAAAAAAAAAAAAAAAAAAAAAAAAAAAAAAAAAAAAAAAAAAAAAAAAAAAAAAAAAAAAAAAAAAAAAAAAAAAAAAAAAAAAAAAAAAAAAAAAAAAAAAAAAAAAAAAAAAAAAAAAAAAAAAAAAAAAAAAAAAAAAAAAAAAAAAAAAAAAAAAAAAAAAAAAAAAAAAAAAAAAAAAAAAAAAAAAAAAAAAAAAAAAAAAAAAAAAAAAAAAAAAAAAAAAAAAAAAAAAAAAAAAAAAAAAAAAAAAAAAAAAAAAAAAAAAAAAAAAAAAAAAAAAAAAAAAAAAAAAAAAAAAAAAAAAAAAAAAAAAAAAAAAAAAAAAAAAAAAAAAAAAAAAAAAAAAAAAAAAAAAAAAAAAAAAAAAAAAAAAAAAAAAAAAAAAAAAAAAAAAAAAAAAAAAAAAAAAAAAAAAAAAAAAAAAAAAAAAAAAAAAAAAAAAAAAAAAAAAAAAAAAAAAAAAAAAAAAAAAAAAAAAAAAAAAAAAAAAAAAAAAAAAAAAAAAAAAAAAAAAAAAAAAAAAAAAAAAAAAAAAAAAAAAAAAAAAAAAAAAAAAAAAAAAAAAAAAAAAAAAAAAAAAAAAAAAAAAAAAAAAAAAAAAAAAAAAAAAAAAAAAAAAAAAAAAAAAAAAAAAAAAAAAAAAAAAAAAAAAAAAAAAAAAAAAAAAAAAAAAAAAAAAAAAAAAAAAAAAAAAAAAAAAAAAAAAAAAAAAAAAAAAAAAAAAAAAAAAAAAAAAAAAAAAAAAAAAAAAAAAAAAAAAAAAAAAAAAAAAAAAAAAAAAAAAAAAAAAAAAAAAAAAAAAAAAAAAAAAAAAAAAAAAAAAAAAAAAAAAAAAAAAAAAAAAAAAAAAAAAAAAAAAAAAAAAAAAAAAAAAAAAAAAAAAAAAAAAAAAAAAAAAAAAAAAAAAAAAAAAAAAAAAAAAAAAAAAAAAAAAAAAAAAAAAAAAAAAAAAAAAAAAAAAAAAAAAAAAAAAAAAAAAAAAAAAAAAAAAAAAAAAAAAAAAAAAAAAAAAAAAAAAAAAAAAAAAAAAAAAAAAAAAAAAAAAAAAAAAAAAAAAAAAAAAAAAAAAAAAAAAAAAAAAAAAAAAAAAAAAAAAAAAAAAAAAAAAAAAAAAAAAAAAAAAAAAAAAAAAAAAAAAAAAAAAAAAAAAAAAAAAAAAAAAAAAAAAAAAAAAAAAAAAAAAAAAAAAAAAAAAAAAAAAAAAAAAAAAAAAAAAAAAAAAAAAAAAAAAAAAAAAAAAAAAAAAAAAAAAAAAAAAAAAAAAAAAAAAAAAAAAAAAAAAAAAAAAAAAAAAAAAAAAAAAAAAAAAAAAAAAAAAAAAAAAAAAAAAAAAAAAAAAAAAAAAAAAAAAAAAAAAAAAAAAAAAAAAAAAAAAAAAAAAAAAAAAAAAAAAAAAAAAAAAAAAAAAAAAAAAAAAAAAAAAAAAAAAAAAAAAAAAAAAAAAAAAAAAAAAAAAAAAAAAAAAAAAAAAAAAAAAAAAAAAAAAAAAAAAAAAAAAAAAAAAAAAAAAAAAAAAAAAAAAAAAAAAAAAAAAAAAAAAAAAAAAAAAAAAAAAAAAAAAAAAAAAAAAAAAAAAAAAAAAAAAAAAAAAAAAAAAAAAAAAAAAAAAAAAAAAAAAAAAAAAAAAAAAAAAAAAAAAAAAAAD2WQEAcVD6utucC069EoP8331KnTzJPPoS609Wy/kj0VG2ZaGLUzM14fKQP7oeeon2CjCr6VJq/cwtV8lnvN7Ra9T2T/1t3/Sn6UCKykh+rOeKdSHq+a7QGu9HhQ5Md7nrahjBHRn2dPtap3cAFD89IXOrX+VvJAiMdgKHri3Cki3w3v66QxZM+ez3VeV3FreYkC2f58fDJesYXQfG8aI8veuOM+QKxq8bdB4dFJz6UIFXvxWUgcEWZiX0Kj3XhEJnHMUGEqhR8TQF3B1znqhwuDkJvvTeJrHvfgE+OpcRuYfrr5pVn5Dmgdqv3k14giAMbBJMZKqewwR/0rb451sBaEvvMg==</c2pa:manifest></metadata>
  <style>
    path { fill: #000; }

    @media (prefers-color-scheme: dark) {
      path { fill: #fff; }
    }
    </style>
  <g id="Circle">
    <path d="M484.79,67.29C110.79,85.87-67.06,548.13,198.45,814.05c241.69,242.06,667.09,126.06,743.06-208.04C1007.7,314.92,780.32,52.62,484.79,67.29ZM872.8,714.3c-159.25,273.67-566.41,272.52-722.97-2.63C-4.97,439.62,183.54,104.97,493.79,91.29c327.34-14.42,544.91,337.9,379.01,623.01Z"/>
  </g>
  <g id="Waveforms">
    <g>
      <path d="M646.13,445.13l-12.97,66.16c2.05,7.01,22.27,1.17,28.15,2.52,1.76-.53,3.5-3.3,3.44-5.13-.09-2.61-4.29-12.44-5.26-16.66-2.85-12.47-3.66-26.1-6.79-38.21-.59-2.29-2.6-10.89-6.58-8.67Z"/>
      <g>
        <path d="M415.52,521.02c4.21-.33,8.39-3.25,5.54-7.59-3.81-5.81-23.38-.5-30.89-11.1-6.88-9.72-9.86-56.03-13.19-58.32-3.06-.41-3.97.93-4.95,3.51-5.77,15.28-3.83,40.48-11.82,55.18-6.18,11.37-14.06,3.88-17.24-5.16-7.8-22.17-5.86-53.19-10.12-76.88-4.52-25.12-8.22-10.21-10.57,4.12-2.78,16.99-3.02,34.54-5.4,51.6-.87,6.23-3.41,28.61-8.89,31.11-11.16,5.09-13.8-19.23-14.84-26.12-5.68-37.42-4.65-76.37-9.15-113.85-.18-1.49-2.05-21.63-5.98-18.51-1.77,1.41-4.58,29.86-5.01,34.5-2.98,32.4-3.1,66.81-8.14,98.86-1.09,6.94-3.7,28.57-14.15,25.44-6.38-1.92-9.66-26.2-10.57-32.44-7.81-53.42-5.54-108.12-10.15-161.85-.63-7.29-1.42-20.16-3.25-26.75-.4-1.45-.92-2.8-2.23-3.68-1.66.82-2.48.87-3.07,2.84-1.48,4.98-1.98,14.08-2.44,19.59-4.94,58.64-.59,126.82-12.31,183.69-4.03,19.56-14.22,29.68-20.39,3.98-8.19-34.13-5.61-74.52-9.32-109.68-.37-3.48-3.3-25.99-5.51-26.5-3.68,1.14-3.81,8.16-4.34,11.64-5.9,38.78-2.61,81.51-10.44,119.56-4.98,24.22-15.42,27.83-22.02,1.61-1.51-5.99-7.23-42.12-9.74-43.77-2.73-1.79-4.26,2.67-4.98,4.41-10.85,26.48-7.27,88.09-2.67,116.75,2.15,13.39,5.57,26.63,8.72,39.79,2.4.29,1.6.03,2.1-1.39,3.26-9.18,3.72-24.31,6.2-34.8,1.43-6.07,7.12-32.55,16.54-19.16,5.66,8.04,8.02,34.31,9.14,44.86,1.19,11.22,4.45,77.95,10,82.01,4.43-1.85,5.05-10.74,5.85-15.17,4.16-23.11,3.98-95.27,14.73-110.27,1.13-1.58,2.89-3.63,4.9-4.05,8.47-.23,11.38,23.45,12.36,29.65,7.42,47.07,6.37,95.38,10.18,142.82.71,8.87,1.33,21.54,3.06,29.94,1.34,6.48,3.97,5.86,5.64-.21,2.45-8.9,3.47-25.06,4.27-34.73,3.95-47.79,1.25-102.89,11.69-149.31,1.2-5.33,4.76-23.85,13.9-17.25,5.2,3.75,9.28,33.31,10.29,40.7,4.66,33.99,4.81,68.73,11.62,102.37,5.46-15.75,4.95-33.84,6.51-50.49,1.01-10.72,3.36-22.47,3.99-33.01,1.48-25.17-2.31-53.38-.03-78.03.77-8.3,2.37-9.8,10.51-10.49,37.05-3.16,78.54,2.42,116.06.06Z"/>
        <path d="M802.7,289.8c-.58-3.02-.7-6.59-3.2-8.78-2.6,0-4.22,16.71-4.49,19.49-5.1,52.44-3.44,106.28-9.01,158.99-1.04,9.84-4.16,39.27-9.99,46.01-9.46,10.95-14.42-10.12-15.69-16.33-7.63-37.36-6-79.54-10.33-117.67-.36-3.21-2.69-21.55-4.07-22.44l-2.86-.03c-.58,2.52-1.54,4.99-1.95,7.56-6.19,38.35-4.07,80.78-9.12,119.88-.92,7.17-3.35,39.39-16.29,31.56-5.62-3.4-8.65-31.47-9.57-38.68-1.13-8.8-4.46-58.88-9.09-61.91-4.3-.89-5.38,8.87-5.91,12.15-2.77,17.31-3.21,36.29-5.13,53.87-.97,8.82-5.79,28.43-4.8,35.73.14,1.02.75,2.94,1.36,3.73,2.25,2.94,17.85,4.78,22.67,6.33,40.34,13.01,29.3,57.15,29.75,89.17.09,6.63,2.46,15.21,3.03,22.05,1.79,21.2,3.08,42.43,6.02,63.49,3.17-2.78,3.27-9.43,3.86-13.63,5.27-37.18,4.38-82.46,14-118,1.44-5.33,4.76-18.11,12.7-12.43,6.21,4.44,10.42,38.93,11.42,47.57,4.92,42.45,4.05,85.48,8.02,127.98.7,7.54,1.46,19.86,3.22,26.78.72,2.81,2.8,5.93,4.24,1.73,8.35-24.39,6.6-80.3,8.54-108.48,1.26-18.26,4.18-79.39,12.79-92.21,8.22-12.24,13.11,6.1,14.71,12.69,7.26,29.79,6.11,63.77,10.63,94.37.34,2.27,2.7,18.67,4.37,18.65,3.32-.04,4.83-11.03,5.33-13.67,5.32-28.12,4.32-58.34,8.29-86.71.9-6.42,3.98-30.56,12.37-30.56,7.73,1.93,9.35,14.03,11.01,20.92,3.03,12.54,3.83,25.52,6.98,38.01,3.16-3.7,3.87-9.31,5.02-13.98,9.26-37.69,12.14-77.82,7.36-116.38-.59-4.76-3.86-28.29-6.83-30.17-.74-.47-2.55-.77-3.02-.45-2.57,1.73-8.4,48.41-14.18,57.33-10.05,15.51-16.11-9.51-17.52-17.15-6.9-37.51-3.78-78.02-9.44-115.56-.21-1.4-2.57-16.15-5.87-13.62-8.27,38.79-5.85,79.09-11.15,118.35-.82,6.06-4.5,40.37-16.44,31.71-5.1-3.69-8.39-26.08-9.29-32.7-6.99-51.51-4.84-104.15-9.14-155.86-.78-9.38-1.51-19.48-3.29-28.71Z"/>
        <path d="M514.72,783.78c-4.72-13.43-7.43,13.63-7.71,16.73-1.96,21.33-2.02,52.8,1.1,73.88.2,1.36,2.16,10.64,4.88,8.6,4.94-3.7,5.47-61.54,5.05-70.54-.31-6.74-1.28-22.89-3.32-28.68Z"/>
        <path d="M394.26,761.76c-3.76,22.99-4.12,66.75-.14,89.61.45,2.6,1.39,5.05,1.89,7.62,3.18.57,3.9-1.18,4.55-3.93,4.2-17.64,4.27-77.57,0-95.13-1.79-7.35-5.34-4.06-6.3,1.83Z"/>
        <path d="M629.97,774.53c-.53-1.42-1.5-3.79-3.35-3.48-.81.14-2.11,1.76-2.4,2.66-1.22,3.88-1.96,16.1-2.21,20.79-.64,12.3-1.58,48.6,2.26,58.72,1.86,4.9,4.01,5.22,5.47.02,3.78-13.43,3.07-46.94,2.3-61.79-.2-3.92-.89-13.77-2.07-16.93Z"/>
        <path d="M570.5,782.02c-3.34-.09-5.36,22.09-5.54,25.44-.73,13.27-.57,31.91,1.05,45.03.53,4.32,2.76,18.09,6.72,7.74,3.87-10.12,3.14-63.36.02-74.47-.42-1.49-.98-2.77-2.24-3.74Z"/>
        <path d="M454.5,783.02c-2.21,1.95-2.64,5.05-3.22,7.76-1.27,5.9-2.03,15.53-2.32,21.68-.75,16.39.71,33.51,4.05,49.54,2.13.38,2.39-.95,2.98-2.5,4.12-10.8,3.74-43.57,3-55.98-.18-2.91-1.84-20.45-4.49-20.49Z"/>
        <path d="M344.5,770.02c-3.42.09-5.35,20.92-5.54,24.44-.31,5.62-.35,39.37,4.55,40.54,1.82.43,2.37-1.99,2.81-3.18,3.59-9.73,4.15-48.76.65-58.29-.57-1.54-1.1-2.53-2.47-3.51Z"/>
        <path d="M679.5,771.02c-2,1.72-2.54,4.48-3.06,6.92-2.46,11.67-2.63,42.57,1.57,53.55.59,1.55.85,2.88,2.98,2.5,3.38-12.48,3.75-26.6,3.05-39.54-.17-3.21-1.97-23.4-4.54-23.44Z"/>
      </g>
    </g>
  </g>
  <g id="Text">
    <g>
      <path d="M572.05,562.45c-1.14-16.19-9.24-30.58-25.27-35.73-13.74-4.42-51.73-3.85-66.98-2.42-19.57,1.83-33.3,11.74-37.52,31.48.23,51.41-4.66,107.59-1.32,158.77,1.43,21.99,12.97,38.33,35.8,41.2,13.92,1.75,43.45,1.41,57.78.29,19.99-1.56,35.04-14.35,37.34-34.66-2.52-51.84,3.78-107.53.17-158.92ZM529.77,710.27c-1.1,4.14-4.03,7.01-8.33,7.67-5.34.82-21.4.71-26.96.09-1.87-.21-4.79-1.12-6.17-2.34-1.05-.93-1.89-3.4-2.85-4.65l-.22-140.3c.71-3.94,3.72-7.36,7.69-8.31,4.63-1.1,22.43-1.01,27.33-.19,5.64.94,9.03,4.56,9.76,10.24l-.25,137.79Z"/>
      <path d="M720.29,630.21l-54.88.69c-1.22.96-1.27,2.15-1.45,3.55-.44,3.33-.28,29.92.54,31.56,3.57,5.51,18.77.03,20.35,4.66-1.35,10.7,5.27,42.87-7.78,46.89-3.12.96-27.82,1.02-31.34.23-3.74-.84-6.33-5.12-7.48-8.52l.24-138.3c1.24-2.94,2.85-6,6.24-6.76,4.45-.99,25.75-.82,30.7-.12,6.95.98,8.88,6.02,9.59,12.41.8,7.2-.59,15.64,0,23,.88,1.43,1.99,1.38,3.45,1.55,4.23.5,31.85.42,34.35-.72,1.74-.79,2.1-5.74,2.24-7.8,1.76-24.82,1.93-54.13-25.82-63.25-15.64-5.14-65.9-5.81-81.2.23-17.81,7.03-22.1,24.51-23.06,41.94-2.29,41.48-2.11,96.53,0,138.09,1.22,24.05,9.58,43.96,36.56,46.44,14.29,1.31,53.92,1.53,66.7-2.27,19.58-5.82,25.6-21.09,26.82-40.18,1.32-20.61,1.85-55.85,0-76.09-.33-3.61-.77-6.21-4.76-7.24Z"/>
      <path d="M302.5,533l-1.5,1.5v219c0,.17,1.54,1.76,2.02,1.98,2.02.94,35.93.96,37.97,0,.47-.22,2.02-1.81,2.02-1.98v-90.5h59.5c.18,0,2.5-2.32,2.5-2.5v-35c-.88-1.43-1.99-1.38-3.45-1.55-14.06-1.65-37.21-.32-52.09,0-2.54.06-4.85,2.02-6.46-.45v-51.5h75.5c.28,0,2.73-1.55,3-2-.1-11.56,2.98-26.42-2-37h-117Z"/>
      <path d="M385.53,351.97c2.75.53,24.71.33,26.46-.49.47-.22,2.02-1.81,2.02-1.98v-98.5l2.23,1.28,38.3,97.69c.64.73,1.49,1.29,2.41,1.59,2.94.96,21.86.98,25.6.49,1.4-.18,2.59-.23,3.55-1.45l.39-178.58c-.22-.47-1.81-2.02-1.98-2.02h-28l-1.5,1.5v103.5h-2.97s-40.53-105-40.53-105h-28l-1.5,1.5v178c0,.75,2.43,2.26,3.53,2.47Z"/>
      <path d="M607.96,320.54c1,12.62,7.21,25.22,20.03,28.97,9.24,2.7,46.65,2.6,56.02.02,11.95-3.3,17.88-12.3,19.87-24.13-2.46-41.31,3.64-87.14.14-127.93-1.04-12.13-9.08-22.64-20.81-26.19-8.12-2.45-39.15-2.12-48.44-1-15.09,1.82-25.09,12.35-26.66,27.34,2.15,39.87-3.28,83.48-.16,122.91ZM640,207.5c.67-6.01,2.8-8.32,8.76-9.24,6.57-1.01,22.12-2.48,23.18,6.29l.08,110.96c1.19,9.83-22.09,8.66-27.08,7.04-3.05-.99-4.46-5.2-4.85-8.15-4.35-32.28,3.07-73.67-.09-106.91Z"/>
      <path d="M532,350.5l1.5,1.5h29l2.05-2.95c-.18-44.34,1.78-89.22.49-133.59-.14-4.98-3.13-12.03.46-16.46h28l1.5-1.5v-26l-1.5-1.5h-90l-1.5,1.5v27.5h30v151.5Z"/>
      <polygon points="353.5 352 355 350.5 355 171.5 353.5 170 324.5 170 322.52 172.02 322.45 349.05 324.5 352 353.5 352"/>
      <path d="M481.24,384.69c-.09,23.59-.71,47.26-.28,70.85.16,8.92,1.3,17.88,1.09,27.01-.04,1.85-1.96,8.45.45,8.45h18l1.5-1.5v-43.5h19v45h20v-109c-.98.32-2.17-1-2.5-1h-16l-1.5,1.5v44l-1.5,1.5h-16l-1.5-1.5v-44.5c0-1-17.46-2.06-19.76.24l-.99,2.46Z"/>
      <path d="M611.5,491c1.12-.21,1.87-.51,2.5-1.5v-16l-1.5-1.5h-37.5v-26h27.5c3.78,0,2.79-15.96,1.5-19h-29v-26h37.5l1.5-1.5v-17l-1.5-1.5h-56l-2.05,2.95.43,106.47c.28.38,6.65,1.45,7.73,1.48,9.11.25,18.66-.72,27.85-.94,6.05-.15,15.68,1.02,21.04.04Z"/>
      <path d="M449.5,491l1.5-1.5v-88c2.21-3.54,18.08-.03,19-1.5v-17.5l-1.5-1.5h-57.5c.32.98-1,2.17-1,2.5v15l1.5,1.5h18.5v88.5c0,.33,1.32,1.52,1,2.5h18.5Z"/>
    </g>
  </g>
</svg>